#!OML:ASF G:\JayActor3\Patient Classification 1\Patient 1\Session 6\male.ASF
:FULLY-SPECIFIED
:DEGREES
871
root 6.89018 16.4241 0.576078 146.695 -81.5388 -146.481
lowerback 2.76319 0.334647 0.362919
upperback 4.31644 0.371291 -0.851558
thorax 2.89325 0.170149 -1.081
lowerneck -12.434 -1.93447 -0.759341
upperneck 23.5975 -3.72577 2.90881
head 9.57079 -1.65132 0.663759
rclavicle -6.95746e-015 0
rhumerus -24.8033 30.5864 -88.8142
rradius 94.3421
rwrist -59.3513
rhand -15.9573 -13.8499
rfingers 7.12502
rthumb 10.2413 -43.5806
lclavicle -6.95746e-015 0
lhumerus -24.79 1.4687 75.5276
lradius 36.1684
lwrist 25.4085
lhand -19.794 10.0476
lfingers 7.12502
lthumb 6.53873 39.9266
rfemur -15.2678 -9.28374 24.8687
rtibia 38.8564
rfoot -32.8906 -22.3839
rtoes 10.9506
lfemur -8.53337 9.7122 -18.1701
ltibia 27.7151
lfoot -41.3925 33.4211
ltoes 21.6161
872
root 6.88846 16.4272 0.547169 148.422 -81.2518 -148.223
lowerback 2.61784 0.229353 0.400081
upperback 4.30222 0.230629 -0.738661
thorax 2.95666 0.100063 -0.985119
lowerneck -12.4213 -1.91319 -0.726602
upperneck 23.6764 -3.68119 2.77645
head 9.59177 -1.64431 0.617404
rclavicle 1.27222e-014 2.38542e-014
rhumerus -25.1373 30.6882 -88.8695
rradius 94.2912
rwrist -59.3686
rhand -16.0911 -13.7856
rfingers 7.12502
rthumb 10.1123 -43.5226
lclavicle 1.27222e-014 2.38542e-014
lhumerus -25.1343 1.51095 75.8768
lradius 35.8774
lwrist 25.2046
lhand -19.6558 10.2143
lfingers 7.12502
lthumb 6.67213 40.0892
rfemur -15.1588 -9.14736 24.8941
rtibia 38.684
rfoot -32.6826 -22.2108
rtoes 10.9812
lfemur -8.40631 9.86618 -18.1144
ltibia 27.6313
lfoot -41.5812 33.4487
ltoes 21.7513
873
root 6.88712 16.4302 0.517878 149.929 -80.9631 -149.75
lowerback 2.48352 0.124015 0.450666
upperback 4.28908 0.0893689 -0.622225
thorax 3.01549 0.0299316 -0.893679
lowerneck -12.415 -1.89624 -0.696635
upperneck 23.767 -3.64281 2.64384
head 9.61832 -1.64046 0.570507
rclavicle -2.5842e-014 -1.98785e-014
rhumerus -25.4692 30.7905 -88.9132
rradius 94.2381
rwrist -59.4127
rhand -16.1988 -13.7999
rfingers 7.12502
rthumb 10.0083 -43.5419
lclavicle -2.5842e-014 -1.98785e-014
lhumerus -25.4724 1.53447 76.2437
lradius 35.5886
lwrist 24.9854
lhand -19.4993 10.3061
lfingers 7.12502
lthumb 6.82316 40.1761
rfemur -15.0462 -9.03111 24.9304
rtibia 38.5156
rfoot -32.4743 -22.0275
rtoes 11.0117
lfemur -8.28337 10.0252 -18.0425
ltibia 27.5563
lfoot -41.7485 33.4713
ltoes 21.8723
874
root 6.88584 16.4325 0.488044 151.35 -80.6741 -151.209
lowerback 2.37403 0.0216557 0.492967
upperback 4.27782 -0.0486044 -0.506721
thorax 3.06275 -0.0389997 -0.799026
lowerneck -12.3991 -1.87969 -0.672537
upperneck 23.863 -3.6053 2.5147
head 9.64529 -1.63754 0.525693
rclavicle -1.75924e-014 2.62396e-014
rhumerus -25.8112 30.891 -88.9526
rradius 94.1841
rwrist -59.45
rhand -16.2669 -13.8881
rfingers 7.12502
rthumb 9.94269 -43.6333
lclavicle -1.75924e-014 2.62396e-014
lhumerus -25.8083 1.55149 76.6233
lradius 35.3005
lwrist 24.7402
lhand -19.3231 10.3125
lfingers 7.12502
lthumb 6.99331 40.1769
rfemur -14.9109 -8.91421 24.9571
rtibia 38.3497
rfoot -32.2834 -21.8326
rtoes 11.0679
lfemur -8.14521 10.1882 -17.9718
ltibia 27.491
lfoot -41.8979 33.5057
ltoes 21.961
875
root 6.88442 16.4342 0.457558 152.679 -80.3785 -152.587
lowerback 2.27514 -0.0751769 0.534103
upperback 4.27064 -0.179765 -0.392609
thorax 3.10882 -0.104687 -0.705509
lowerneck -12.3904 -1.86513 -0.644964
upperneck 23.97 -3.57164 2.38365
head 9.6776 -1.63634 0.478954
rclavicle -1.36167e-014 -1.59028e-015
rhumerus -26.1522 30.9848 -88.9861
rradius 94.1253
rwrist -59.4627
rhand -16.324 -14.0086
rfingers 7.12502
rthumb 9.88756 -43.7564
lclavicle -1.36167e-014 -1.59028e-015
lhumerus -26.1323 1.56757 77.0089
lradius 35.0151
lwrist 24.4493
lhand -19.1276 10.2883
lfingers 7.12502
lthumb 7.182 40.1464
rfemur -14.7618 -8.7966 24.9838
rtibia 38.1841
rfoot -32.1067 -21.6329
rtoes 11.1412
lfemur -8.0003 10.3763 -17.8934
ltibia 27.4372
lfoot -42.0155 33.5406
ltoes 22.0081
876
root 6.88315 16.4358 0.42636 153.906 -80.0819 -153.87
lowerback 2.18858 -0.170806 0.571728
upperback 4.26403 -0.30974 -0.278667
thorax 3.14899 -0.170012 -0.610487
lowerneck -12.3898 -1.84915 -0.609832
upperneck 24.0908 -3.53662 2.24461
head 9.71615 -1.6348 0.428071
rclavicle -3.57812e-015 9.54166e-015
rhumerus -26.4968 31.0793 -89.0199
rradius 94.0574
rwrist -59.4399
rhand -16.3818 -14.1055
rfingers 7.12502
rthumb 9.83182 -43.8559
lclavicle -3.57812e-015 9.54166e-015
lhumerus -26.4496 1.59529 77.3952
lradius 34.7367
lwrist 24.1017
lhand -18.9158 10.2394
lfingers 7.12502
lthumb 7.38645 40.0904
rfemur -14.6028 -8.66598 25.0152
rtibia 38.018
rfoot -31.9623 -21.4407
rtoes 11.249
lfemur -7.85251 10.5939 -17.8055
ltibia 27.3934
lfoot -42.0811 33.5785
ltoes 22.0042
877
root 6.88173 16.4371 0.394764 155.045 -79.7758 -155.071
lowerback 2.11101 -0.26098 0.617577
upperback 4.25873 -0.432734 -0.168904
thorax 3.18587 -0.231634 -0.52457
lowerneck -12.407 -1.83048 -0.566521
upperneck 24.2308 -3.50104 2.10636
head 9.76492 -1.63213 0.375719
rclavicle 1.75924e-014 -8.74653e-015
rhumerus -26.8459 31.1605 -89.0592
rradius 93.9804
rwrist -59.3751
rhand -16.4471 -14.173
rfingers 7.12502
rthumb 9.76885 -43.9265
lclavicle 1.75924e-014 -8.74653e-015
lhumerus -26.7592 1.63242 77.7745
lradius 34.4657
lwrist 23.6843
lhand -18.6782 10.1908
lfingers 7.12502
lthumb 7.61577 40.0337
rfemur -14.4355 -8.51894 25.0549
rtibia 37.8498
rfoot -31.8386 -21.2638
rtoes 11.3739
lfemur -7.70123 10.8184 -17.7086
ltibia 27.3616
lfoot -42.1364 33.6214
ltoes 21.9767
